<?xml version="1.0" encoding="UTF-8"?>
<svg width="39.192mm" height="39.192mm" version="1.1" viewBox="0 0 39.192 39.192" xmlns="http://www.w3.org/2000/svg" xmlns:cc="http://creativecommons.org/ns#" xmlns:dc="http://purl.org/dc/elements/1.1/" xmlns:rdf="http://www.w3.org/1999/02/22-rdf-syntax-ns#">
 <metadata>
  <rdf:RDF>
   <cc:Work rdf:about="">
    <dc:format>image/svg+xml</dc:format>
    <dc:type rdf:resource="http://purl.org/dc/dcmitype/StillImage"/>
    <dc:title/>
   </cc:Work>
  </rdf:RDF>
 </metadata>
 <circle cx="19.596" cy="19.596" r="19.252" fill="#3c3b6e" stroke="#fff" stroke-width=".68823"/>
 <g transform="matrix(2.9559 0 0 2.9559 -67.603 -53.858)" stroke="#fff">
  <circle cx="29.5" cy="24.85" r="5.2104" fill="#b22234" stroke-width=".21167"/>
  <g stroke-width=".162">
   <path d="m29.86 26.643-2.4342-1.2003-2.3688 1.3247 0.38939-2.6859-1.9919-1.8435 2.6748-0.45967 1.1377-2.464 1.2637 2.4019 2.695 0.32061-1.8938 1.9441z" fill="#3c3b6e"/>
   <path d="m31.84 28.004-2.4342-1.2003-2.3688 1.3247 0.38939-2.6859-1.9919-1.8435 2.6748-0.45967 1.1377-2.464 1.2637 2.4019 2.695 0.32061-1.8938 1.9441z" fill="#6766a8"/>
   <path d="m34.274 29.205-2.4342-1.2003-2.3688 1.3247 0.38939-2.6859-1.9919-1.8435 2.6748-0.45967 1.1377-2.464 1.2637 2.4019 2.695 0.32061-1.8938 1.9441z" fill="#a6a5cf"/>
  </g>
 </g>
</svg>
