<?xml version="1.0" encoding="UTF-8" standalone="no"?>
<svg
   xmlns:dc="http://purl.org/dc/elements/1.1/"
   xmlns:cc="http://creativecommons.org/ns#"
   xmlns:rdf="http://www.w3.org/1999/02/22-rdf-syntax-ns#"
   xmlns:svg="http://www.w3.org/2000/svg"
   xmlns="http://www.w3.org/2000/svg"
   xmlns:sodipodi="http://sodipodi.sourceforge.net/DTD/sodipodi-0.dtd"
   xmlns:inkscape="http://www.inkscape.org/namespaces/inkscape"
   width="361.54626mm"
   height="51.356586mm"
   version="1.1"
   viewBox="0 0 361.54626 51.356585"
   id="svg20"
   sodipodi:docname="logo-con-texto.svg"
   inkscape:version="1.0.1 (3bc2e813f5, 2020-09-07)">
  <defs
     id="defs24" />
  <sodipodi:namedview
     pagecolor="#ffffff"
     bordercolor="#666666"
     borderopacity="1"
     objecttolerance="10"
     gridtolerance="10"
     guidetolerance="10"
     inkscape:pageopacity="0"
     inkscape:pageshadow="2"
     inkscape:window-width="1884"
     inkscape:window-height="1043"
     id="namedview22"
     showgrid="false"
     fit-margin-top="0"
     fit-margin-left="0"
     fit-margin-right="0"
     fit-margin-bottom="0"
     inkscape:zoom="1"
     inkscape:cx="434.35639"
     inkscape:cy="108.38636"
     inkscape:window-x="36"
     inkscape:window-y="0"
     inkscape:window-maximized="1"
     inkscape:current-layer="svg20"
     inkscape:document-rotation="0" />
  <metadata
     id="metadata2">
    <rdf:RDF>
      <cc:Work
         rdf:about="">
        <dc:format>image/svg+xml</dc:format>
        <dc:type
           rdf:resource="http://purl.org/dc/dcmitype/StillImage" />
        <dc:title></dc:title>
      </cc:Work>
    </rdf:RDF>
  </metadata>
  <g
     id="g32"
     transform="translate(61.373308,23.107643)">
    <circle
       cx="-35.695015"
       cy="2.5706506"
       r="25.227373"
       fill="#3c3b6e"
       id="circle4"
       style="stroke:#ffffff;stroke-width:0.90184;stroke-miterlimit:4;stroke-dasharray:none;stroke-opacity:1" />
    <g
       stroke="#ffffff"
       id="g16"
       style="stroke:#ffffff;stroke-opacity:1"
       transform="matrix(3.8733281,0,0,3.8733281,-149.95819,-93.681552)">
      <circle
         cx="29.5"
         cy="24.85"
         r="5.2104001"
         fill="#b22234"
         stroke-width="0.21167"
         id="circle6"
         style="stroke:#ffffff;stroke-opacity:1" />
      <g
         stroke-width="0.162"
         id="g14"
         style="stroke:#ffffff;stroke-opacity:1">
        <path
           d="m 29.86,26.643 -2.4342,-1.2003 -2.3688,1.3247 0.38939,-2.6859 -1.9919,-1.8435 2.6748,-0.45967 1.1377,-2.464 1.2637,2.4019 2.695,0.32061 -1.8938,1.9441 z"
           fill="#3c3b6e"
           id="path8"
           style="stroke:#ffffff;stroke-opacity:1" />
        <path
           d="m 31.84,28.004 -2.4342,-1.2003 -2.3688,1.3247 0.38939,-2.6859 -1.9919,-1.8435 2.6748,-0.45967 1.1377,-2.464 1.2637,2.4019 2.695,0.32061 -1.8938,1.9441 z"
           fill="#6766a8"
           id="path10"
           style="stroke:#ffffff;stroke-opacity:1" />
        <path
           d="m 34.274,29.205 -2.4342,-1.2003 -2.3688,1.3247 0.38939,-2.6859 -1.9919,-1.8435 2.6748,-0.45967 1.1377,-2.464 1.2637,2.4019 2.695,0.32061 -1.8938,1.9441 z"
           fill="#a6a5cf"
           id="path12"
           style="stroke:#ffffff;stroke-opacity:1" />
      </g>
    </g>
  </g>
  <g
     id="g93"
     style="fill:#3c3b6e;fill-opacity:1;stroke:#ffffff;stroke-opacity:1"
     transform="translate(114.31508,37.171869)">
    <path
       d="m -44.832359,6.2152276 q -1.516726,0 -2.664519,-0.2459556 -1.147792,-0.2459556 -2.008637,-1.1887854 -0.819852,-0.9428298 -0.819852,-2.9104746 0,-2.74650415 1.639704,-7.3786679 1.680696,-4.6321641 4.386208,-9.3053201 -2.04963,0.122978 -3.238415,0.614889 -1.188786,0.491911 -1.557719,1.516726 0.16397,0 0.327941,0.409926 0.204963,0.409926 0.204963,0.860845 0,0.737867 -0.655882,1.188785 -0.655881,0.4099262 -1.639704,0.4099262 -1.147793,0 -1.844667,-0.6148892 -0.696874,-0.614889 -0.696874,-1.762682 0,-1.393748 1.065808,-2.541541 1.1068,-1.147793 3.033452,-1.803674 1.926652,-0.696874 4.26323,-0.696874 0.860845,0 2.131615,0.122977 3.361394,-5.329037 7.09172,-8.690431 3.771319,-3.402385 7.173705,-3.402385 1.967645,0 3.238415,0.573896 l -6.435838,30.1705532 h -5.902934 l 3.15643,-14.8803132 q -1.516726,-0.696875 -2.787497,-1.024815 -1.27077,-0.327941 -2.705511,-0.450919 -2.336578,5.0420898 -3.853305,10.3301351 -1.475733,5.24705273 -1.475733,8.4034829 0,1.5577188 0.573896,2.2955856 z m 12.994654,-32.5071316 q -1.762681,0.94283 -3.689334,3.525364 -1.885659,2.541541 -3.689334,6.189882 2.951468,0.573897 5.001098,1.434741 z"
       style="font-style:normal;font-variant:normal;font-weight:normal;font-stretch:normal;font-size:40.9926px;line-height:1.25;font-family:Lobster;-inkscape-font-specification:'Lobster, Normal';font-variant-ligatures:normal;font-variant-caps:normal;font-variant-numeric:normal;font-variant-east-asian:normal;letter-spacing:0px;word-spacing:0px;fill:#3c3b6e;fill-opacity:1;stroke:#ffffff;stroke-width:1.02482;stroke-opacity:1"
       id="path34" />
    <path
       id="path36"
       style="font-style:normal;font-variant:normal;font-weight:normal;font-stretch:normal;font-size:40.9926px;line-height:1.25;font-family:Lobster;-inkscape-font-specification:'Lobster, Normal';font-variant-ligatures:normal;font-variant-caps:normal;font-variant-numeric:normal;font-variant-east-asian:normal;letter-spacing:0px;word-spacing:0px;fill:#3c3b6e;fill-opacity:1;stroke:#ffffff;stroke-width:3.87334;stroke-opacity:1"
       d="m -19.160156,-102.93359 -22.931641,3.097652 -16.576172,77.621094 c -0.190447,0.952239 -0.353447,1.85272 -0.5,2.722656 -1.138057,2.952047 -2.722526,5.458855 -4.767578,7.503907 -2.582211,2.4789223 -5.371824,3.7167966 -8.367187,3.7167966 -2.272346,0 -3.924147,-0.4119737 -4.957032,-1.2382812 -0.929597,-0.9295964 -1.394531,-2.4283714 -1.394531,-4.4941404 0,-1.755904 0.205985,-3.407705 0.619141,-4.957032 l 17.818359,-83.664062 -22.931641,3.099609 -16.576171,77.621094 c -0.826311,4.131538 -1.240231,7.488102 -1.240231,10.070313 0,6.1973059 1.49682,10.84470581 4.492184,13.943359 3.098653,3.0986531 7.128092,4.6484375 12.085937,4.6484375 5.887441,0 11.825676,-1.9617581 17.816407,-5.88671875 2.596283,-1.7457769 4.988845,-4.16368575 7.177734,-7.24804685 0.665557,3.5123858 1.979417,6.35144758 3.976562,8.4863281 3.098654,3.0986531 7.128092,4.6484375 12.085938,4.6484375 4.441402,0 8.262902,-1.3948059 11.464844,-4.1835937 3.30523,-2.89207633 5.164971,-6.9195625 5.578125,-12.0839844 -1.446039,0.6197306 -3.099793,0.9296875 -4.958985,0.9296875 -4.234826,0 -6.351562,-2.0657279 -6.351562,-6.1972659 0,-1.446038 0.205987,-2.944814 0.61914,-4.49414 z"
       transform="scale(0.26458333)" />
  </g>
  <g
     id="g85"
     style="fill:#b22234;fill-opacity:1;stroke:#ffffff;stroke-width:1.00013;stroke-miterlimit:4;stroke-dasharray:none;stroke-opacity:1"
     transform="translate(114.31508,37.171869)">
    <path
       d="m 6.8891624,6.2152276 q -1.5167262,0 -2.664519,-0.2459556 Q 3.0768507,5.7233164 2.2160061,4.7804866 1.3961541,3.8376568 1.3961541,1.870012 q 0,-2.74650415 1.639704,-7.3786679 1.6806965,-4.6321641 4.3862081,-9.3053201 -2.04963,0.122978 -3.2384154,0.614889 -1.1887853,0.491911 -1.5577187,1.516726 0.1639704,0 0.3279408,0.409926 0.204963,0.409926 0.204963,0.860845 0,0.737867 -0.6558816,1.188785 -0.6558816,0.4099262 -1.63970402,0.4099262 -1.14779279,0 -1.84466698,-0.6148892 -0.6968742,-0.614889 -0.6968742,-1.762682 0,-1.393748 1.0658076,-2.541541 1.10680018,-1.147793 3.0334524,-1.803674 1.9266521,-0.696874 4.2632303,-0.696874 0.8608446,0 2.1316152,0.122977 3.3613934,-5.329037 7.0917194,-8.690431 3.771319,-3.402385 7.173705,-3.402385 1.967645,0 3.238416,0.573896 L 19.883816,1.5420712 h -5.902934 l 3.15643,-14.8803132 q -1.516726,-0.696875 -2.787496,-1.024815 -1.270771,-0.327941 -2.705512,-0.450919 Q 9.3077258,-9.7718862 7.7909996,-4.4838409 6.315266,0.76321183 6.315266,3.919642 q 0,1.5577188 0.5738964,2.2955856 z M 19.883816,-26.291904 q -1.762681,0.94283 -3.689334,3.525364 -1.885659,2.541541 -3.689333,6.189882 2.951467,0.573897 5.001097,1.434741 z"
       style="font-style:normal;font-variant:normal;font-weight:normal;font-stretch:normal;font-size:40.9926px;line-height:1.25;font-family:Lobster;-inkscape-font-specification:'Lobster, Normal';font-variant-ligatures:normal;font-variant-caps:normal;font-variant-numeric:normal;font-variant-east-asian:normal;letter-spacing:0px;word-spacing:0px;fill:#b22234;fill-opacity:1;stroke:#ffffff;stroke-width:1.00013;stroke-miterlimit:4;stroke-dasharray:none;stroke-opacity:1"
       id="path41" />
    <path
       id="path43"
       style="font-style:normal;font-variant:normal;font-weight:normal;font-stretch:normal;font-size:40.9926px;line-height:1.25;font-family:Lobster;-inkscape-font-specification:'Lobster, Normal';font-variant-ligatures:normal;font-variant-caps:normal;font-variant-numeric:normal;font-variant-east-asian:normal;letter-spacing:0px;word-spacing:0px;fill:#b22234;fill-opacity:1;stroke:#ffffff;stroke-width:3.78;stroke-miterlimit:4;stroke-dasharray:none;stroke-opacity:1"
       d="m 252.08398,-73.033203 c -9.70911,0 -17.71307,3.150576 -24.01367,9.451172 -6.30059,6.197306 -10.84598,13.583311 -13.63476,22.15625 -2.78879,8.572941 -4.1836,16.421925 -4.1836,23.548828 0,0.160791 0.006,0.315418 0.008,0.474609 -1.19003,2.427775 -2.38029,4.424428 -3.57032,5.878906 -1.85919,2.1690578 -4.33884,3.2519536 -7.4375,3.2519536 -2.27234,0 -3.87314,-0.5669521 -4.80273,-1.703125 -0.9296,-1.1361726 -1.39453,-2.7369656 -1.39453,-4.8027346 0,-1.755903 0.30995,-4.131588 0.92969,-7.126953 0.72301,-3.098653 1.49791,-6.24923 2.32421,-9.451172 1.34275,-5.267709 2.37659,-9.709123 3.09961,-13.324219 0.72302,-3.718384 1.08399,-7.074948 1.08399,-10.070312 0,-5.887441 -1.54979,-10.277845 -4.64844,-13.169922 -3.09865,-2.892077 -7.28112,-4.33789 -12.54883,-4.33789 -8.67623,-10e-7 -15.85624,4.390404 -21.53711,13.169921 -1.54932,-8.882807 -6.86765,-13.324218 -15.95703,-13.324218 -7.33348,0 -13.63463,2.942635 -18.90234,8.830078 l 1.70508,-8.056641 H 106.29297 L 89.869141,5.828125 h 22.310549 l 10.53515,-49.732422 c 1.23946,-4.338114 2.89322,-7.798648 4.95899,-10.380859 2.16906,-2.685501 4.69972,-4.029297 7.59179,-4.029297 3.09866,0 4.64844,2.273669 4.64844,6.818359 0,1.34275 -0.15498,2.633586 -0.46484,3.873047 L 128.13867,5.828125 h 22.31055 l 10.53516,-49.732422 c 1.23946,-4.234827 2.89126,-7.644351 4.95703,-10.226562 2.06577,-2.685498 4.44145,-4.027344 7.12695,-4.027344 3.71838,0 5.57812,2.632682 5.57812,7.900391 0,2.169058 -0.36096,5.009678 -1.08398,8.521484 -0.72302,3.511807 -1.49791,7.076311 -2.32422,10.691406 -0.20658,0.723019 -0.6205,2.37482 -1.24023,4.957031 -0.51645,2.582211 -1.03239,5.267853 -1.54883,8.056641 -0.51644,2.685499 -0.77539,5.112193 -0.77539,7.28125 0,4.957845 1.44581,9.1422627 4.33789,12.5507812 2.99537,3.30523 7.64472,4.9570313 13.94531,4.9570313 5.371,0 10.53435,-1.9107497 15.49219,-5.7324219 2.28802,-1.77438358 4.44771,-4.3170668 6.48242,-7.6113281 1.05791,3.0091167 2.61451,5.49817 4.67383,7.45703125 4.23483,3.92496065 10.17306,5.88671875 17.81641,5.88671875 13.4047,0 25.08782,-6.008673 35.06445,-17.9746095 l -3.61328,17.044922 h 22.31054 l 12.39453,-58.875 c 2.37564,-2.169056 4.28639,-3.665879 5.73243,-4.492187 1.54932,-0.929595 3.40906,-1.394532 5.57812,-1.394532 0.82631,0 1.39326,0.309959 1.70313,0.929688 0.30986,0.619731 0.61982,1.600609 0.92968,2.943359 0.41316,2.065769 0.98206,3.666563 1.70508,4.802735 0.82631,1.032884 2.37609,1.550781 4.64844,1.550781 3.51181,0 6.24846,-1.137811 8.21094,-3.410157 1.96248,-2.272345 2.94336,-4.905024 2.94336,-7.90039 0,-3.20194 -0.98088,-5.940546 -2.94336,-8.212891 -1.85919,-2.272347 -4.44087,-3.408203 -7.7461,-3.408203 -3.30523,0 -6.4048,0.827853 -9.29687,2.480469 -2.78879,1.652616 -5.93937,4.0283 -9.45117,7.126953 l 2.01367,-9.607422 H 282.29688 L 271.75,-21.894531 c -4.74764,5.262438 -9.13262,9.185126 -13.1582,11.765625 -3.92496,2.5822108 -8.67633,3.8730466 -14.25391,3.8730466 -3.92496,0 -6.76558,-0.8788621 -8.52148,-2.6347656 -1.75591,-1.859192 -2.63477,-5.319726 -2.63477,-10.380859 0,-1.032885 0.10398,-3.098613 0.31055,-6.197266 6.1973,-0.413154 12.03352,-2.064955 17.50781,-4.957031 5.47429,-2.995365 9.86469,-6.920833 13.16992,-11.775391 3.30523,-4.854556 4.95703,-10.17288 4.95703,-15.957031 0,-9.915691 -5.68124,-14.875 -17.04297,-14.875 z m 1.24024,8.212891 c 2.58221,0 3.87305,2.116737 3.87305,6.351562 0,4.234827 -1.08485,8.262313 -3.25391,12.083984 -2.06577,3.821672 -4.85538,6.972249 -8.36719,9.451172 -3.40852,2.478923 -7.02208,3.822721 -10.84375,4.029297 1.54933,-8.263076 4.07999,-15.64908 7.5918,-22.15625 3.61509,-6.507172 7.28161,-9.759765 11,-9.759765 z"
       transform="scale(0.26458333)" />
    <path
       id="path49"
       style="font-style:normal;font-variant:normal;font-weight:normal;font-stretch:normal;font-size:40.9926px;line-height:1.25;font-family:Lobster;-inkscape-font-specification:'Lobster, Normal';font-variant-ligatures:normal;font-variant-caps:normal;font-variant-numeric:normal;font-variant-east-asian:normal;letter-spacing:0px;word-spacing:0px;fill:#b22234;fill-opacity:1;stroke:#ffffff;stroke-width:3.78;stroke-miterlimit:4;stroke-dasharray:none;stroke-opacity:1"
       d="m 355.88867,-104.63867 c -3.40852,0 -6.30014,1.23983 -8.67578,3.71875 -2.37563,2.375633 -3.56445,5.26726 -3.56445,8.675779 0,3.408519 1.18882,6.30015 3.56445,8.675782 2.37564,2.375634 5.26726,3.564453 8.67578,3.564453 3.40852,0 6.30015,-1.188819 8.67578,-3.564453 2.47893,-2.375632 3.71875,-5.267263 3.71875,-8.675782 0,-3.408519 -1.23982,-6.300146 -3.71875,-8.675779 -2.37563,-2.47892 -5.26726,-3.71875 -8.67578,-3.71875 z m 55.15625,31.605467 c -9.60582,0 -17.55877,3.150576 -23.85937,9.451172 -6.19731,6.197306 -10.74269,13.583311 -13.63477,22.15625 -2.78879,8.572941 -4.18359,16.421925 -4.18359,23.548828 0,0.337459 0.009,0.665685 0.0156,0.996094 -0.97956,1.844139 -2.16627,3.480727 -3.57812,4.892578 -2.58221,2.4789223 -5.37183,3.7167966 -8.36719,3.7167966 -2.27235,0 -3.92415,-0.4119737 -4.95703,-1.2382812 -0.9296,-0.9295964 -1.39453,-2.4283714 -1.39453,-4.4941404 0,-1.755904 0.20599,-3.407705 0.61914,-4.957032 l 11.15625,-52.677734 h -22.31055 l -10.53516,49.734375 c -0.8263,4.131538 -1.24023,7.488102 -1.24023,10.070313 0,6.1973059 1.49878,10.84470581 4.49414,13.943359 3.09865,3.0986531 7.12614,4.6484375 12.08399,4.6484375 5.88744,0 11.82567,-1.9617581 17.8164,-5.88671875 2.80262,-1.88451895 5.36547,-4.55958605 7.69336,-8.00390625 1.0577,3.2559723 2.67479,5.9277415 4.85742,8.00390625 4.23482,3.92496065 10.17305,5.88671875 17.81641,5.88671875 13.69761,0 25.60457,-6.25343884 35.72266,-18.7480465 0.75294,5.4821974 2.58115,9.7194486 5.49023,12.70507775 3.92496,4.02824905 8.82935,6.04296875 14.7168,6.04296875 5.06111,0 9.4005,-1.2908359 13.01562,-3.8730469 3.71838,-2.68549938 7.07496,-6.1460334 10.07031,-10.3808594 0.51646,4.6479797 2.06624,8.21248375 4.64844,10.6914063 2.68551,2.3756341 6.19704,3.5625 10.53516,3.5625 5.68085,0 11.30914,-1.9617581 16.88672,-5.88671875 1.23741,-0.87743753 2.42892,-1.93480995 3.57812,-3.15039065 L 506.4824,5.828125 h 22.31055 l 10.53515,-49.732422 c 1.23946,-4.234827 2.89323,-7.644351 4.95899,-10.226562 2.06579,-2.685498 4.44147,-4.027344 7.12695,-4.027344 3.7184,0 5.57617,2.632682 5.57617,7.900391 0,2.169058 -0.36096,5.009678 -1.08398,8.521484 -0.72302,3.511807 -1.49791,7.076311 -2.32422,10.691406 -0.20659,0.723019 -0.61856,2.37482 -1.23828,4.957031 -0.51643,2.582211 -1.03432,5.267853 -1.55078,8.056641 -0.51644,2.685499 -0.77344,5.112193 -0.77344,7.28125 0,5.0611335 1.23788,9.2455512 3.7168,12.5507812 2.47891,3.30523 6.45735,4.9570313 11.93164,4.9570313 4.4414,0 8.20993,-1.3418444 11.30859,-4.0273437 3.20194,-2.68549945 5.11268,-6.6619772 5.73242,-11.9296876 -0.92961,0.6197307 -2.63241,0.9277344 -5.11132,0.9277344 -2.27233,0 -3.87313,-0.5669521 -4.80274,-1.703125 -0.92959,-1.1361726 -1.39453,-2.7369656 -1.39453,-4.8027346 0,-1.755903 0.30997,-4.131588 0.92969,-7.126953 0.72302,-3.098653 1.49596,-6.24923 2.32226,-9.451172 1.34277,-5.267709 2.37661,-9.709123 3.09961,-13.324219 0.72303,-3.718384 1.08399,-7.074948 1.08399,-10.070312 0,-5.887441 -1.54981,-10.277845 -4.64844,-13.169922 -3.09866,-2.892077 -7.2811,-4.33789 -12.54883,-4.33789 -6.92031,0 -12.96253,2.891627 -18.12695,8.675781 l 1.70508,-8.056641 h -22.31055 l -10.56445,49.830078 c -1.23707,4.293077 -2.93128,7.774185 -5.08399,10.439453 -2.06579,2.6854998 -4.54543,4.0273441 -7.4375,4.0273441 -4.23481,0 -6.35156,-2.2207064 -6.35156,-6.6621091 0,-1.755904 0.20599,-3.407705 0.61914,-4.957032 l 11.15625,-52.677734 h -22.31055 l -1.70507,8.212891 v -1.085938 c 0,-2.375634 -1.0319,-4.286384 -3.09766,-5.732422 -2.06576,-1.446039 -5.21634,-2.167968 -9.45117,-2.167968 -8.36636,0 -15.5974,2.942635 -21.69141,8.830078 -5.99075,5.784151 -10.53418,12.911208 -13.63281,21.380859 -2.78928,7.790714 -4.26316,15.263968 -4.45508,22.427734 -3.99762,4.204955 -7.73015,7.424527 -11.19336,9.644532 -3.92496,2.5822108 -8.67633,3.8730466 -14.25391,3.8730466 -3.92496,0 -6.76559,-0.8788621 -8.52148,-2.6347656 -1.75592,-1.859192 -2.63477,-5.319726 -2.63476,-10.380859 0,-5.784153 0.98283,-12.291295 2.94531,-19.521485 1.96248,-7.230191 4.49314,-13.374412 7.59179,-18.435547 3.09866,-5.061132 6.19627,-7.591796 9.29493,-7.591796 1.44602,0 2.53088,0.566953 3.2539,1.703124 0.72303,1.136174 1.08399,2.685959 1.08399,4.648438 0,2.6855 -0.61992,5.732106 -1.85938,9.140625 1.8592,1.239461 3.66794,1.859375 5.42383,1.859375 2.37563,0 4.33739,-0.98088 5.88672,-2.943359 1.54933,-1.962482 2.32422,-4.752092 2.32422,-8.367188 0,-4.131537 -1.34184,-7.539111 -4.02735,-10.224609 -2.58222,-2.685501 -6.97263,-4.029297 -13.16992,-4.029297 z m 62.4375,10.226562 c 2.16905,0 3.76984,0.670925 4.80274,2.013672 1.03289,1.239464 1.54882,2.530299 1.54882,3.873047 l -7.43554,35.015625 c -0.92959,4.234826 -2.68536,7.59139 -5.26758,10.070313 -2.47892,2.3756338 -5.0096,3.5624996 -7.5918,3.5624996 -2.16907,0 -4.02879,-0.7219306 -5.57812,-2.1679686 -1.44602,-1.446038 -2.16992,-4.751594 -2.16992,-9.916016 0,-5.164422 0.92988,-11.102658 2.78906,-17.816406 1.8592,-6.817038 4.44282,-12.602249 7.74804,-17.353516 3.30525,-4.854556 7.02277,-7.28125 11.1543,-7.28125 z"
       transform="scale(0.26458333)" />
  </g>
  <path
     id="path58"
     style="font-style:normal;font-variant:normal;font-weight:normal;font-stretch:normal;font-size:40.9926px;line-height:1.25;font-family:Lobster;-inkscape-font-specification:'Lobster, Normal';font-variant-ligatures:normal;font-variant-caps:normal;font-variant-numeric:normal;font-variant-east-asian:normal;letter-spacing:0px;word-spacing:0px;fill:#ffffff;fill-opacity:1;stroke:#000000;stroke-width:1.02482;stroke-opacity:1"
     d="m 316.19112,18.297569 c -2.56886,0 -4.68709,0.833589 -6.35413,2.500622 -1.66703,1.639704 -2.86966,3.593917 -3.60753,5.862174 -0.73787,2.268257 -1.10639,4.344968 -1.10639,6.230628 0,0.04219 0.002,0.08276 0.002,0.12454 -0.31499,0.642727 -0.63017,1.170985 -0.94516,1.555977 -0.49191,0.573897 -1.14747,0.86093 -1.96732,0.86093 -0.60123,0 -1.02477,-0.150006 -1.27072,-0.450619 -0.24596,-0.300612 -0.36897,-0.724155 -0.36897,-1.270723 0,-0.464583 0.082,-1.093149 0.24597,-1.885673 0.19131,-0.819852 0.39581,-1.653442 0.61444,-2.500623 0.35526,-1.393748 0.6288,-2.568872 0.8201,-3.525366 0.1913,-0.983822 0.28681,-1.871913 0.28681,-2.664436 0,-1.557719 -0.41005,-2.719347 -1.2299,-3.484542 -0.81986,-0.765196 -1.92647,-1.147734 -3.32021,-1.147734 -2.29559,0 -4.19479,1.161628 -5.69785,3.484542 -0.40992,-2.350242 -1.81758,-3.525366 -4.22248,-3.525366 -1.94031,0 -3.60698,0.778573 -5.00073,2.336291 l 0.45062,-2.131653 h -5.90305 l -4.34495,20.496423 h 5.903 l 2.78743,-13.158886 c 0.32794,-1.147793 0.76498,-2.062876 1.31154,-2.746086 0.5739,-0.710538 1.24347,-1.066085 2.00867,-1.066085 0.81984,10e-7 1.2299,0.601575 1.2299,1.804025 0,0.355269 -0.041,0.696802 -0.12299,1.024743 l -2.99258,14.142289 h 5.903 l 2.78742,-13.158886 c 0.32794,-1.120465 0.7655,-2.022051 1.31207,-2.705261 0.54656,-0.710538 1.17513,-1.065568 1.88567,-1.065568 0.98382,0 1.47536,0.696563 1.47536,2.090311 0,0.573897 -0.0955,1.325478 -0.2868,2.254643 -0.1913,0.929166 -0.39633,1.871757 -0.61495,2.828251 -0.0547,0.191299 -0.16367,0.628855 -0.32763,1.312065 -0.13665,0.68321 -0.27367,1.393786 -0.41031,2.131653 -0.13664,0.710538 -0.20464,1.3526 -0.20464,1.926497 0,1.311763 0.38254,2.418373 1.14773,3.320211 0.79253,0.874508 2.02215,1.312064 3.68918,1.312064 1.42108,0 2.78774,-0.505552 4.09949,-1.516703 0.60538,-0.469472 1.17679,-1.142224 1.71514,-2.013831 0.27991,0.796163 0.69124,1.454725 1.2361,1.973007 1.12046,1.038479 2.69163,1.557527 4.71393,1.557527 3.54652,0 6.63789,-1.589539 9.27747,-4.755265 l -0.95602,4.509285 h 5.903 l 2.78743,-13.158886 c 0.32794,-1.120465 0.7655,-2.022051 1.31206,-2.705261 0.54657,-0.710538 1.17514,-1.065568 1.88568,-1.065568 0.98382,0 1.47588,0.696563 1.47588,2.090311 0,0.573897 -0.096,1.325478 -0.28732,2.254643 -0.1913,0.929166 -0.39633,1.871757 -0.61495,2.828251 -0.0547,0.191299 -0.16366,0.628855 -0.32763,1.312065 -0.13664,0.68321 -0.27316,1.393786 -0.4098,2.131653 -0.13664,0.710538 -0.20515,1.3526 -0.20515,1.926497 0,1.311763 0.38254,2.418373 1.14773,3.320211 0.79252,0.874508 2.02215,1.312064 3.68918,1.312064 1.42108,0 2.78773,-0.505552 4.09949,-1.516703 0.56957,-0.441701 1.10931,-1.063202 1.61954,-1.860868 0.17876,0.891337 0.52471,1.609545 1.0449,2.147672 0.81985,0.819852 1.88546,1.229899 3.19722,1.229899 1.09313,0 2.14525,-0.273537 3.1564,-0.820105 1.03848,-0.546568 2.02259,-1.571169 2.95176,-3.074231 0.13663,1.229778 0.54668,2.186383 1.2299,2.869593 0.71053,0.68321 1.63963,1.024743 2.78742,1.024743 1.22978,0 2.26839,-0.355546 3.11557,-1.066085 0.84718,-0.710538 1.32523,-1.762648 1.43454,-3.156396 -0.0547,0.02733 -0.19117,0.08235 -0.40979,0.164331 -0.1913,0.05466 -0.50584,0.08165 -0.9431,0.08165 -0.60123,0 -1.03826,-0.109002 -1.31155,-0.327629 -0.24595,-0.245955 -0.36897,-0.642506 -0.36897,-1.189075 0,-0.464582 0.0545,-0.901621 0.16382,-1.311547 l 2.95176,-13.937651 h -5.903 l -2.78743,13.158887 c -0.32795,1.120464 -0.7655,2.008555 -1.31206,2.664437 -0.54657,0.628553 -1.20213,0.942578 -1.96733,0.942578 -0.81985,0 -1.2299,-0.601058 -1.2299,-1.803508 0,-0.355269 0.041,-0.696803 0.123,-1.024743 l 2.95124,-13.937651 h -5.903 l -2.78743,13.158887 c -0.49191,1.229778 -0.98397,2.144861 -1.47588,2.746085 -0.4919,0.573897 -1.14747,0.86093 -1.96732,0.86093 -0.60123,0 -1.02477,-0.150006 -1.27072,-0.450619 -0.24596,-0.300612 -0.36897,-0.724155 -0.36897,-1.270723 0,-0.464583 0.082,-1.093149 0.24598,-1.885673 0.1913,-0.819852 0.39632,-1.653442 0.61495,-2.500623 0.35526,-1.393748 0.62828,-2.568872 0.81958,-3.525366 0.19131,-0.983822 0.28681,-1.871913 0.28681,-2.664436 0,-1.557719 -0.40953,-2.719347 -1.22938,-3.484542 -0.81986,-0.765196 -1.92698,-1.147734 -3.32073,-1.147734 -1.831,0 -3.42967,0.765077 -4.79609,2.295467 l 0.45114,-2.131653 h -5.903 l -2.79053,13.162504 c -1.25586,1.39193 -2.41656,2.428819 -3.48144,3.111438 -1.03848,0.68321 -2.29562,1.025261 -3.77135,1.025261 -1.03848,0 -1.79006,-0.232533 -2.25464,-0.697115 -0.46459,-0.491912 -0.6966,-1.407511 -0.6966,-2.746603 0,-0.273284 0.0275,-0.819841 0.0822,-1.639693 1.6397,-0.109314 3.18335,-0.546353 4.63176,-1.311548 1.4484,-0.792523 2.61003,-1.831137 3.48454,-3.115572 0.87451,-1.284435 1.31154,-2.691574 1.31154,-4.221964 0,-2.623527 -1.50264,-3.935677 -4.50877,-3.935677 z m 0.32764,2.172994 c 0.68321,0 1.02474,0.560053 1.02474,1.680517 0,1.120464 -0.28703,2.18607 -0.86093,3.197221 -0.54657,1.011151 -1.28414,1.844741 -2.2133,2.500623 -0.90184,0.655881 -1.85844,1.011428 -2.8696,1.066084 0.40993,-2.186271 1.0795,-4.140485 2.00867,-5.862174 0.95649,-1.72169 1.92659,-2.582271 2.91042,-2.582271 z" />
</svg>
