<?xml version="1.0" encoding="UTF-8" standalone="no"?>
<svg
   xmlns:dc="http://purl.org/dc/elements/1.1/"
   xmlns:cc="http://creativecommons.org/ns#"
   xmlns:rdf="http://www.w3.org/1999/02/22-rdf-syntax-ns#"
   xmlns:svg="http://www.w3.org/2000/svg"
   xmlns="http://www.w3.org/2000/svg"
   xmlns:sodipodi="http://sodipodi.sourceforge.net/DTD/sodipodi-0.dtd"
   xmlns:inkscape="http://www.inkscape.org/namespaces/inkscape"
   width="134.47478mm"
   height="58.663303mm"
   version="1.1"
   viewBox="0 0 134.47477 58.663302"
   id="svg20"
   sodipodi:docname="logo-con-texto-v.svg"
   inkscape:version="1.0.1 (3bc2e813f5, 2020-09-07)">
  <defs
     id="defs24" />
  <sodipodi:namedview
     pagecolor="#ffffff"
     bordercolor="#666666"
     borderopacity="1"
     objecttolerance="10"
     gridtolerance="10"
     guidetolerance="10"
     inkscape:pageopacity="0"
     inkscape:pageshadow="2"
     inkscape:window-width="1884"
     inkscape:window-height="1043"
     id="namedview22"
     showgrid="false"
     fit-margin-top="0"
     fit-margin-left="0"
     fit-margin-right="0"
     fit-margin-bottom="0"
     inkscape:zoom="0.87231805"
     inkscape:cx="559.75017"
     inkscape:cy="122.30554"
     inkscape:window-x="36"
     inkscape:window-y="0"
     inkscape:window-maximized="1"
     inkscape:current-layer="svg20"
     inkscape:document-rotation="0" />
  <metadata
     id="metadata2">
    <rdf:RDF>
      <cc:Work
         rdf:about="">
        <dc:format>image/svg+xml</dc:format>
        <dc:type
           rdf:resource="http://purl.org/dc/dcmitype/StillImage" />
        <dc:title></dc:title>
      </cc:Work>
    </rdf:RDF>
  </metadata>
  <g
     id="g32"
     transform="matrix(0.90046393,0,0,0.90046393,55.26445,30.04523)">
    <circle
       cx="-35.695015"
       cy="2.5706506"
       r="25.227373"
       fill="#3c3b6e"
       id="circle4"
       style="stroke:#ffffff;stroke-width:0.90184;stroke-miterlimit:4;stroke-dasharray:none;stroke-opacity:1" />
    <g
       stroke="#ffffff"
       id="g16"
       style="stroke:#ffffff;stroke-opacity:1"
       transform="matrix(3.8733281,0,0,3.8733281,-149.95819,-93.681552)">
      <circle
         cx="29.5"
         cy="24.85"
         r="5.2104001"
         fill="#b22234"
         stroke-width="0.21167"
         id="circle6"
         style="stroke:#ffffff;stroke-opacity:1" />
      <g
         stroke-width="0.162"
         id="g14"
         style="stroke:#ffffff;stroke-opacity:1">
        <path
           d="m 29.86,26.643 -2.4342,-1.2003 -2.3688,1.3247 0.38939,-2.6859 -1.9919,-1.8435 2.6748,-0.45967 1.1377,-2.464 1.2637,2.4019 2.695,0.32061 -1.8938,1.9441 z"
           fill="#3c3b6e"
           id="path8"
           style="stroke:#ffffff;stroke-opacity:1" />
        <path
           d="m 31.84,28.004 -2.4342,-1.2003 -2.3688,1.3247 0.38939,-2.6859 -1.9919,-1.8435 2.6748,-0.45967 1.1377,-2.464 1.2637,2.4019 2.695,0.32061 -1.8938,1.9441 z"
           fill="#6766a8"
           id="path10"
           style="stroke:#ffffff;stroke-opacity:1" />
        <path
           d="m 34.274,29.205 -2.4342,-1.2003 -2.3688,1.3247 0.38939,-2.6859 -1.9919,-1.8435 2.6748,-0.45967 1.1377,-2.464 1.2637,2.4019 2.695,0.32061 -1.8938,1.9441 z"
           fill="#a6a5cf"
           id="path12"
           style="stroke:#ffffff;stroke-opacity:1" />
      </g>
    </g>
  </g>
  <g
     id="g93"
     style="fill:#3c3b6e;fill-opacity:1;stroke:#ffffff;stroke-opacity:1"
     transform="matrix(0.5,0,0,0.5,82.942621,14.857394)">
    <path
       d="m -44.832359,6.2152276 q -1.516726,0 -2.664519,-0.2459556 -1.147792,-0.2459556 -2.008637,-1.1887854 -0.819852,-0.9428298 -0.819852,-2.9104746 0,-2.74650415 1.639704,-7.3786679 1.680696,-4.6321641 4.386208,-9.3053201 -2.04963,0.122978 -3.238415,0.614889 -1.188786,0.491911 -1.557719,1.516726 0.16397,0 0.327941,0.409926 0.204963,0.409926 0.204963,0.860845 0,0.737867 -0.655882,1.188785 -0.655881,0.4099262 -1.639704,0.4099262 -1.147793,0 -1.844667,-0.6148892 -0.696874,-0.614889 -0.696874,-1.762682 0,-1.393748 1.065808,-2.541541 1.1068,-1.147793 3.033452,-1.803674 1.926652,-0.696874 4.26323,-0.696874 0.860845,0 2.131615,0.122977 3.361394,-5.329037 7.09172,-8.690431 3.771319,-3.402385 7.173705,-3.402385 1.967645,0 3.238415,0.573896 l -6.435838,30.1705532 h -5.902934 l 3.15643,-14.8803132 q -1.516726,-0.696875 -2.787497,-1.024815 -1.27077,-0.327941 -2.705511,-0.450919 -2.336578,5.0420898 -3.853305,10.3301351 -1.475733,5.24705273 -1.475733,8.4034829 0,1.5577188 0.573896,2.2955856 z m 12.994654,-32.5071316 q -1.762681,0.94283 -3.689334,3.525364 -1.885659,2.541541 -3.689334,6.189882 2.951468,0.573897 5.001098,1.434741 z"
       style="font-style:normal;font-variant:normal;font-weight:normal;font-stretch:normal;font-size:40.9926px;line-height:1.25;font-family:Lobster;-inkscape-font-specification:'Lobster, Normal';font-variant-ligatures:normal;font-variant-caps:normal;font-variant-numeric:normal;font-variant-east-asian:normal;letter-spacing:0px;word-spacing:0px;fill:#3c3b6e;fill-opacity:1;stroke:#ffffff;stroke-width:1.02482;stroke-opacity:1"
       id="path34" />
    <path
       id="path36"
       style="font-style:normal;font-variant:normal;font-weight:normal;font-stretch:normal;font-size:40.9926px;line-height:1.25;font-family:Lobster;-inkscape-font-specification:'Lobster, Normal';font-variant-ligatures:normal;font-variant-caps:normal;font-variant-numeric:normal;font-variant-east-asian:normal;letter-spacing:0px;word-spacing:0px;fill:#3c3b6e;fill-opacity:1;stroke:#ffffff;stroke-width:3.87334;stroke-opacity:1"
       d="m -19.160156,-102.93359 -22.931641,3.097652 -16.576172,77.621094 c -0.190447,0.952239 -0.353447,1.85272 -0.5,2.722656 -1.138057,2.952047 -2.722526,5.458855 -4.767578,7.503907 -2.582211,2.4789223 -5.371824,3.7167966 -8.367187,3.7167966 -2.272346,0 -3.924147,-0.4119737 -4.957032,-1.2382812 -0.929597,-0.9295964 -1.394531,-2.4283714 -1.394531,-4.4941404 0,-1.755904 0.205985,-3.407705 0.619141,-4.957032 l 17.818359,-83.664062 -22.931641,3.099609 -16.576171,77.621094 c -0.826311,4.131538 -1.240231,7.488102 -1.240231,10.070313 0,6.1973059 1.49682,10.84470581 4.492184,13.943359 3.098653,3.0986531 7.128092,4.6484375 12.085937,4.6484375 5.887441,0 11.825676,-1.9617581 17.816407,-5.88671875 2.596283,-1.7457769 4.988845,-4.16368575 7.177734,-7.24804685 0.665557,3.5123858 1.979417,6.35144758 3.976562,8.4863281 3.098654,3.0986531 7.128092,4.6484375 12.085938,4.6484375 4.441402,0 8.262902,-1.3948059 11.464844,-4.1835937 3.30523,-2.89207633 5.164971,-6.9195625 5.578125,-12.0839844 -1.446039,0.6197306 -3.099793,0.9296875 -4.958985,0.9296875 -4.234826,0 -6.351562,-2.0657279 -6.351562,-6.1972659 0,-1.446038 0.205987,-2.944814 0.61914,-4.49414 z"
       transform="scale(0.26458333)" />
  </g>
  <g
     id="g85"
     style="fill:#b22234;fill-opacity:1;stroke:#ffffff;stroke-width:1.00013;stroke-miterlimit:4;stroke-dasharray:none;stroke-opacity:1"
     transform="matrix(0.5,0,0,0.5,57.075688,38.654997)">
    <path
       d="m 6.8891624,6.2152276 q -1.5167262,0 -2.664519,-0.2459556 Q 3.0768507,5.7233164 2.2160061,4.7804866 1.3961541,3.8376568 1.3961541,1.870012 q 0,-2.74650415 1.639704,-7.3786679 1.6806965,-4.6321641 4.3862081,-9.3053201 -2.04963,0.122978 -3.2384154,0.614889 -1.1887853,0.491911 -1.5577187,1.516726 0.1639704,0 0.3279408,0.409926 0.204963,0.409926 0.204963,0.860845 0,0.737867 -0.6558816,1.188785 -0.6558816,0.4099262 -1.63970402,0.4099262 -1.14779279,0 -1.84466698,-0.6148892 -0.6968742,-0.614889 -0.6968742,-1.762682 0,-1.393748 1.0658076,-2.541541 1.10680018,-1.147793 3.0334524,-1.803674 1.9266521,-0.696874 4.2632303,-0.696874 0.8608446,0 2.1316152,0.122977 3.3613934,-5.329037 7.0917194,-8.690431 3.771319,-3.402385 7.173705,-3.402385 1.967645,0 3.238416,0.573896 L 19.883816,1.5420712 h -5.902934 l 3.15643,-14.8803132 q -1.516726,-0.696875 -2.787496,-1.024815 -1.270771,-0.327941 -2.705512,-0.450919 Q 9.3077258,-9.7718862 7.7909996,-4.4838409 6.315266,0.76321183 6.315266,3.919642 q 0,1.5577188 0.5738964,2.2955856 z M 19.883816,-26.291904 q -1.762681,0.94283 -3.689334,3.525364 -1.885659,2.541541 -3.689333,6.189882 2.951467,0.573897 5.001097,1.434741 z"
       style="font-style:normal;font-variant:normal;font-weight:normal;font-stretch:normal;font-size:40.9926px;line-height:1.25;font-family:Lobster;-inkscape-font-specification:'Lobster, Normal';font-variant-ligatures:normal;font-variant-caps:normal;font-variant-numeric:normal;font-variant-east-asian:normal;letter-spacing:0px;word-spacing:0px;fill:#b22234;fill-opacity:1;stroke:#ffffff;stroke-width:1.00013;stroke-miterlimit:4;stroke-dasharray:none;stroke-opacity:1"
       id="path41" />
    <path
       id="path43"
       style="font-style:normal;font-variant:normal;font-weight:normal;font-stretch:normal;font-size:40.9926px;line-height:1.25;font-family:Lobster;-inkscape-font-specification:'Lobster, Normal';font-variant-ligatures:normal;font-variant-caps:normal;font-variant-numeric:normal;font-variant-east-asian:normal;letter-spacing:0px;word-spacing:0px;fill:#b22234;fill-opacity:1;stroke:#ffffff;stroke-width:3.78;stroke-miterlimit:4;stroke-dasharray:none;stroke-opacity:1"
       d="m 252.08398,-73.033203 c -9.70911,0 -17.71307,3.150576 -24.01367,9.451172 -6.30059,6.197306 -10.84598,13.583311 -13.63476,22.15625 -2.78879,8.572941 -4.1836,16.421925 -4.1836,23.548828 0,0.160791 0.006,0.315418 0.008,0.474609 -1.19003,2.427775 -2.38029,4.424428 -3.57032,5.878906 -1.85919,2.1690578 -4.33884,3.2519536 -7.4375,3.2519536 -2.27234,0 -3.87314,-0.5669521 -4.80273,-1.703125 -0.9296,-1.1361726 -1.39453,-2.7369656 -1.39453,-4.8027346 0,-1.755903 0.30995,-4.131588 0.92969,-7.126953 0.72301,-3.098653 1.49791,-6.24923 2.32421,-9.451172 1.34275,-5.267709 2.37659,-9.709123 3.09961,-13.324219 0.72302,-3.718384 1.08399,-7.074948 1.08399,-10.070312 0,-5.887441 -1.54979,-10.277845 -4.64844,-13.169922 -3.09865,-2.892077 -7.28112,-4.33789 -12.54883,-4.33789 -8.67623,-10e-7 -15.85624,4.390404 -21.53711,13.169921 -1.54932,-8.882807 -6.86765,-13.324218 -15.95703,-13.324218 -7.33348,0 -13.63463,2.942635 -18.90234,8.830078 l 1.70508,-8.056641 H 106.29297 L 89.869141,5.828125 h 22.310549 l 10.53515,-49.732422 c 1.23946,-4.338114 2.89322,-7.798648 4.95899,-10.380859 2.16906,-2.685501 4.69972,-4.029297 7.59179,-4.029297 3.09866,0 4.64844,2.273669 4.64844,6.818359 0,1.34275 -0.15498,2.633586 -0.46484,3.873047 L 128.13867,5.828125 h 22.31055 l 10.53516,-49.732422 c 1.23946,-4.234827 2.89126,-7.644351 4.95703,-10.226562 2.06577,-2.685498 4.44145,-4.027344 7.12695,-4.027344 3.71838,0 5.57812,2.632682 5.57812,7.900391 0,2.169058 -0.36096,5.009678 -1.08398,8.521484 -0.72302,3.511807 -1.49791,7.076311 -2.32422,10.691406 -0.20658,0.723019 -0.6205,2.37482 -1.24023,4.957031 -0.51645,2.582211 -1.03239,5.267853 -1.54883,8.056641 -0.51644,2.685499 -0.77539,5.112193 -0.77539,7.28125 0,4.957845 1.44581,9.1422627 4.33789,12.5507812 2.99537,3.30523 7.64472,4.9570313 13.94531,4.9570313 5.371,0 10.53435,-1.9107497 15.49219,-5.7324219 2.28802,-1.77438358 4.44771,-4.3170668 6.48242,-7.6113281 1.05791,3.0091167 2.61451,5.49817 4.67383,7.45703125 4.23483,3.92496065 10.17306,5.88671875 17.81641,5.88671875 13.4047,0 25.08782,-6.008673 35.06445,-17.9746095 l -3.61328,17.044922 h 22.31054 l 12.39453,-58.875 c 2.37564,-2.169056 4.28639,-3.665879 5.73243,-4.492187 1.54932,-0.929595 3.40906,-1.394532 5.57812,-1.394532 0.82631,0 1.39326,0.309959 1.70313,0.929688 0.30986,0.619731 0.61982,1.600609 0.92968,2.943359 0.41316,2.065769 0.98206,3.666563 1.70508,4.802735 0.82631,1.032884 2.37609,1.550781 4.64844,1.550781 3.51181,0 6.24846,-1.137811 8.21094,-3.410157 1.96248,-2.272345 2.94336,-4.905024 2.94336,-7.90039 0,-3.20194 -0.98088,-5.940546 -2.94336,-8.212891 -1.85919,-2.272347 -4.44087,-3.408203 -7.7461,-3.408203 -3.30523,0 -6.4048,0.827853 -9.29687,2.480469 -2.78879,1.652616 -5.93937,4.0283 -9.45117,7.126953 l 2.01367,-9.607422 H 282.29688 L 271.75,-21.894531 c -4.74764,5.262438 -9.13262,9.185126 -13.1582,11.765625 -3.92496,2.5822108 -8.67633,3.8730466 -14.25391,3.8730466 -3.92496,0 -6.76558,-0.8788621 -8.52148,-2.6347656 -1.75591,-1.859192 -2.63477,-5.319726 -2.63477,-10.380859 0,-1.032885 0.10398,-3.098613 0.31055,-6.197266 6.1973,-0.413154 12.03352,-2.064955 17.50781,-4.957031 5.47429,-2.995365 9.86469,-6.920833 13.16992,-11.775391 3.30523,-4.854556 4.95703,-10.17288 4.95703,-15.957031 0,-9.915691 -5.68124,-14.875 -17.04297,-14.875 z m 1.24024,8.212891 c 2.58221,0 3.87305,2.116737 3.87305,6.351562 0,4.234827 -1.08485,8.262313 -3.25391,12.083984 -2.06577,3.821672 -4.85538,6.972249 -8.36719,9.451172 -3.40852,2.478923 -7.02208,3.822721 -10.84375,4.029297 1.54933,-8.263076 4.07999,-15.64908 7.5918,-22.15625 3.61509,-6.507172 7.28161,-9.759765 11,-9.759765 z"
       transform="scale(0.26458333)" />
    <path
       id="path49"
       style="font-style:normal;font-variant:normal;font-weight:normal;font-stretch:normal;font-size:40.9926px;line-height:1.25;font-family:Lobster;-inkscape-font-specification:'Lobster, Normal';font-variant-ligatures:normal;font-variant-caps:normal;font-variant-numeric:normal;font-variant-east-asian:normal;letter-spacing:0px;word-spacing:0px;fill:#b22234;fill-opacity:1;stroke:#ffffff;stroke-width:3.78;stroke-miterlimit:4;stroke-dasharray:none;stroke-opacity:1"
       d="m 355.88867,-104.63867 c -3.40852,0 -6.30014,1.23983 -8.67578,3.71875 -2.37563,2.375633 -3.56445,5.26726 -3.56445,8.675779 0,3.408519 1.18882,6.30015 3.56445,8.675782 2.37564,2.375634 5.26726,3.564453 8.67578,3.564453 3.40852,0 6.30015,-1.188819 8.67578,-3.564453 2.47893,-2.375632 3.71875,-5.267263 3.71875,-8.675782 0,-3.408519 -1.23982,-6.300146 -3.71875,-8.675779 -2.37563,-2.47892 -5.26726,-3.71875 -8.67578,-3.71875 z m 55.15625,31.605467 c -9.60582,0 -17.55877,3.150576 -23.85937,9.451172 -6.19731,6.197306 -10.74269,13.583311 -13.63477,22.15625 -2.78879,8.572941 -4.18359,16.421925 -4.18359,23.548828 0,0.337459 0.009,0.665685 0.0156,0.996094 -0.97956,1.844139 -2.16627,3.480727 -3.57812,4.892578 -2.58221,2.4789223 -5.37183,3.7167966 -8.36719,3.7167966 -2.27235,0 -3.92415,-0.4119737 -4.95703,-1.2382812 -0.9296,-0.9295964 -1.39453,-2.4283714 -1.39453,-4.4941404 0,-1.755904 0.20599,-3.407705 0.61914,-4.957032 l 11.15625,-52.677734 h -22.31055 l -10.53516,49.734375 c -0.8263,4.131538 -1.24023,7.488102 -1.24023,10.070313 0,6.1973059 1.49878,10.84470581 4.49414,13.943359 3.09865,3.0986531 7.12614,4.6484375 12.08399,4.6484375 5.88744,0 11.82567,-1.9617581 17.8164,-5.88671875 2.80262,-1.88451895 5.36547,-4.55958605 7.69336,-8.00390625 1.0577,3.2559723 2.67479,5.9277415 4.85742,8.00390625 4.23482,3.92496065 10.17305,5.88671875 17.81641,5.88671875 13.69761,0 25.60457,-6.25343884 35.72266,-18.7480465 0.75294,5.4821974 2.58115,9.7194486 5.49023,12.70507775 3.92496,4.02824905 8.82935,6.04296875 14.7168,6.04296875 5.06111,0 9.4005,-1.2908359 13.01562,-3.8730469 3.71838,-2.68549938 7.07496,-6.1460334 10.07031,-10.3808594 0.51646,4.6479797 2.06624,8.21248375 4.64844,10.6914063 2.68551,2.3756341 6.19704,3.5625 10.53516,3.5625 5.68085,0 11.30914,-1.9617581 16.88672,-5.88671875 1.23741,-0.87743753 2.42892,-1.93480995 3.57812,-3.15039065 L 506.4824,5.828125 h 22.31055 l 10.53515,-49.732422 c 1.23946,-4.234827 2.89323,-7.644351 4.95899,-10.226562 2.06579,-2.685498 4.44147,-4.027344 7.12695,-4.027344 3.7184,0 5.57617,2.632682 5.57617,7.900391 0,2.169058 -0.36096,5.009678 -1.08398,8.521484 -0.72302,3.511807 -1.49791,7.076311 -2.32422,10.691406 -0.20659,0.723019 -0.61856,2.37482 -1.23828,4.957031 -0.51643,2.582211 -1.03432,5.267853 -1.55078,8.056641 -0.51644,2.685499 -0.77344,5.112193 -0.77344,7.28125 0,5.0611335 1.23788,9.2455512 3.7168,12.5507812 2.47891,3.30523 6.45735,4.9570313 11.93164,4.9570313 4.4414,0 8.20993,-1.3418444 11.30859,-4.0273437 3.20194,-2.68549945 5.11268,-6.6619772 5.73242,-11.9296876 -0.92961,0.6197307 -2.63241,0.9277344 -5.11132,0.9277344 -2.27233,0 -3.87313,-0.5669521 -4.80274,-1.703125 -0.92959,-1.1361726 -1.39453,-2.7369656 -1.39453,-4.8027346 0,-1.755903 0.30997,-4.131588 0.92969,-7.126953 0.72302,-3.098653 1.49596,-6.24923 2.32226,-9.451172 1.34277,-5.267709 2.37661,-9.709123 3.09961,-13.324219 0.72303,-3.718384 1.08399,-7.074948 1.08399,-10.070312 0,-5.887441 -1.54981,-10.277845 -4.64844,-13.169922 -3.09866,-2.892077 -7.2811,-4.33789 -12.54883,-4.33789 -6.92031,0 -12.96253,2.891627 -18.12695,8.675781 l 1.70508,-8.056641 h -22.31055 l -10.56445,49.830078 c -1.23707,4.293077 -2.93128,7.774185 -5.08399,10.439453 -2.06579,2.6854998 -4.54543,4.0273441 -7.4375,4.0273441 -4.23481,0 -6.35156,-2.2207064 -6.35156,-6.6621091 0,-1.755904 0.20599,-3.407705 0.61914,-4.957032 l 11.15625,-52.677734 h -22.31055 l -1.70507,8.212891 v -1.085938 c 0,-2.375634 -1.0319,-4.286384 -3.09766,-5.732422 -2.06576,-1.446039 -5.21634,-2.167968 -9.45117,-2.167968 -8.36636,0 -15.5974,2.942635 -21.69141,8.830078 -5.99075,5.784151 -10.53418,12.911208 -13.63281,21.380859 -2.78928,7.790714 -4.26316,15.263968 -4.45508,22.427734 -3.99762,4.204955 -7.73015,7.424527 -11.19336,9.644532 -3.92496,2.5822108 -8.67633,3.8730466 -14.25391,3.8730466 -3.92496,0 -6.76559,-0.8788621 -8.52148,-2.6347656 -1.75592,-1.859192 -2.63477,-5.319726 -2.63476,-10.380859 0,-5.784153 0.98283,-12.291295 2.94531,-19.521485 1.96248,-7.230191 4.49314,-13.374412 7.59179,-18.435547 3.09866,-5.061132 6.19627,-7.591796 9.29493,-7.591796 1.44602,0 2.53088,0.566953 3.2539,1.703124 0.72303,1.136174 1.08399,2.685959 1.08399,4.648438 0,2.6855 -0.61992,5.732106 -1.85938,9.140625 1.8592,1.239461 3.66794,1.859375 5.42383,1.859375 2.37563,0 4.33739,-0.98088 5.88672,-2.943359 1.54933,-1.962482 2.32422,-4.752092 2.32422,-8.367188 0,-4.131537 -1.34184,-7.539111 -4.02735,-10.224609 -2.58222,-2.685501 -6.97263,-4.029297 -13.16992,-4.029297 z m 62.4375,10.226562 c 2.16905,0 3.76984,0.670925 4.80274,2.013672 1.03289,1.239464 1.54882,2.530299 1.54882,3.873047 l -7.43554,35.015625 c -0.92959,4.234826 -2.68536,7.59139 -5.26758,10.070313 -2.47892,2.3756338 -5.0096,3.5624996 -7.5918,3.5624996 -2.16907,0 -4.02879,-0.7219306 -5.57812,-2.1679686 -1.44602,-1.446038 -2.16992,-4.751594 -2.16992,-9.916016 0,-5.164422 0.92988,-11.102658 2.78906,-17.816406 1.8592,-6.817038 4.44282,-12.602249 7.74804,-17.353516 3.30525,-4.854556 7.02277,-7.28125 11.1543,-7.28125 z"
       transform="scale(0.26458333)" />
  </g>
  <path
     id="path58"
     style="font-style:normal;font-variant:normal;font-weight:normal;font-stretch:normal;font-size:40.9926px;line-height:1.25;font-family:Lobster;-inkscape-font-specification:'Lobster, Normal';font-variant-ligatures:normal;font-variant-caps:normal;font-variant-numeric:normal;font-variant-east-asian:normal;letter-spacing:0px;word-spacing:0px;fill:#ffffff;fill-opacity:1;stroke:#000000;stroke-width:0.51241;stroke-opacity:1"
     d="m 78.820774,47.851409 c -1.28443,0 -2.34354,0.416795 -3.17706,1.250311 -0.83352,0.819852 -1.43483,1.796959 -1.80377,2.931087 -0.36893,1.134129 -0.55319,2.172484 -0.55319,3.115314 0,0.02109 0.001,0.04138 0.001,0.06227 -0.1575,0.321364 -0.31509,0.585493 -0.47258,0.777989 -0.24596,0.286948 -0.57374,0.430465 -0.98366,0.430465 -0.30062,0 -0.51239,-0.075 -0.63536,-0.22531 -0.12298,-0.150306 -0.18449,-0.362077 -0.18449,-0.635361 0,-0.232292 0.041,-0.546575 0.12299,-0.942837 0.0957,-0.409926 0.1979,-0.826721 0.30722,-1.250311 0.17763,-0.696874 0.3144,-1.284436 0.41005,-1.762683 0.0956,-0.491911 0.1434,-0.935957 0.1434,-1.332218 0,-0.77886 -0.20502,-1.359674 -0.61495,-1.742271 -0.40993,-0.382598 -0.96323,-0.573867 -1.6601,-0.573867 -1.1478,0 -2.0974,0.580814 -2.84893,1.742271 -0.20496,-1.175121 -0.90879,-1.762683 -2.11124,-1.762683 -0.97015,0 -1.80349,0.389286 -2.50036,1.168145 l 0.22531,-1.065826 h -2.95153 l -2.17247,10.248211 h 2.9515 l 1.39371,-6.579443 c 0.16397,-0.573896 0.38249,-1.031438 0.65577,-1.373043 0.28695,-0.355269 0.62174,-0.533042 1.00434,-0.533042 0.40992,0 0.61495,0.300787 0.61495,0.902012 0,0.177635 -0.0205,0.348401 -0.0615,0.512372 l -1.49629,7.071144 h 2.9515 l 1.39371,-6.579443 c 0.16397,-0.560232 0.38275,-1.011025 0.65604,-1.35263 0.27328,-0.355269 0.58756,-0.532784 0.94283,-0.532784 0.49191,0 0.73768,0.348281 0.73768,1.045155 0,0.286949 -0.0478,0.662739 -0.1434,1.127322 -0.0956,0.464583 -0.19816,0.935878 -0.30747,1.414125 -0.0273,0.09565 -0.0818,0.314428 -0.16382,0.656033 -0.0683,0.341605 -0.13683,0.696893 -0.20515,1.065826 -0.0683,0.355269 -0.10232,0.6763 -0.10232,0.963249 0,0.655881 0.19127,1.209186 0.57386,1.660105 0.39627,0.437254 1.01108,0.656032 1.84459,0.656032 0.71054,0 1.39387,-0.252776 2.04975,-0.758351 0.30269,-0.234736 0.58839,-0.571112 0.85757,-1.006916 0.13995,0.398082 0.34562,0.727363 0.61805,0.986504 0.56023,0.519239 1.34581,0.778763 2.35696,0.778763 1.77326,0 3.31895,-0.794769 4.63874,-2.377632 l -0.47801,2.254642 h 2.9515 l 1.39371,-6.579443 c 0.16397,-0.560232 0.38275,-1.011025 0.65603,-1.35263 0.27329,-0.355269 0.58757,-0.532784 0.94284,-0.532784 0.49191,0 0.73794,0.348281 0.73794,1.045155 0,0.286949 -0.048,0.662739 -0.14366,1.127322 -0.0957,0.464583 -0.19816,0.935878 -0.30747,1.414125 -0.0273,0.09565 -0.0818,0.314428 -0.16382,0.656033 -0.0683,0.341605 -0.13658,0.696893 -0.2049,1.065826 -0.0683,0.355269 -0.10257,0.6763 -0.10257,0.963249 0,0.655881 0.19127,1.209186 0.57386,1.660105 0.39626,0.437254 1.01108,0.656032 1.84459,0.656032 0.71054,0 1.39387,-0.252776 2.04975,-0.758351 0.28478,-0.220851 0.55465,-0.531601 0.80977,-0.930434 0.0894,0.445668 0.26235,0.804772 0.52245,1.073836 0.40992,0.409926 0.94273,0.614949 1.59861,0.614949 0.54656,0 1.07262,-0.136768 1.5782,-0.410052 0.51924,-0.273284 1.01129,-0.785585 1.47588,-1.537116 0.0683,0.614889 0.27334,1.093192 0.61495,1.434797 0.35526,0.341605 0.81982,0.512371 1.39372,0.512371 0.61489,0 1.134186,-0.177773 1.557776,-0.533042 0.42359,-0.355269 0.66262,-0.881324 0.71727,-1.578198 -0.0274,0.01367 -0.0956,0.04118 -0.20489,0.08217 -0.0957,0.02733 -0.25292,0.04082 -0.47155,0.04082 -0.30062,0 -0.519126,-0.0545 -0.655776,-0.163814 -0.12297,-0.122978 -0.18448,-0.321253 -0.18448,-0.594538 0,-0.232291 0.0273,-0.45081 0.0819,-0.655773 l 1.475876,-6.968826 h -2.951496 l -1.39373,6.579444 c -0.16397,0.560232 -0.38275,1.004277 -0.65603,1.332218 -0.27328,0.314277 -0.60106,0.471289 -0.98366,0.471289 -0.40993,0 -0.61495,-0.300529 -0.61495,-0.901754 0,-0.177634 0.0205,-0.348401 0.0615,-0.512371 l 1.47562,-6.968826 h -2.9515 l -1.39372,6.579444 c -0.24595,0.614889 -0.49198,1.07243 -0.73794,1.373042 -0.24595,0.286949 -0.57373,0.430465 -0.98366,0.430465 -0.30061,0 -0.51238,-0.075 -0.63536,-0.225309 -0.12298,-0.150306 -0.18448,-0.362078 -0.18448,-0.635362 0,-0.232291 0.041,-0.546574 0.12299,-0.942836 0.0957,-0.409926 0.19816,-0.826721 0.30747,-1.250312 0.17763,-0.696874 0.31414,-1.284436 0.40979,-1.762683 0.0957,-0.491911 0.14341,-0.935956 0.14341,-1.332218 0,-0.778859 -0.20477,-1.359673 -0.61469,-1.742271 -0.40993,-0.382598 -0.96349,-0.573867 -1.66037,-0.573867 -0.9155,0 -1.71483,0.382539 -2.39804,1.147734 l 0.22557,-1.065827 h -2.9515 l -1.39527,6.581252 c -0.62793,0.695965 -1.20828,1.21441 -1.74072,1.555719 -0.51924,0.341605 -1.14781,0.512631 -1.88567,0.512631 -0.51924,0 -0.89503,-0.116267 -1.12732,-0.348558 -0.2323,-0.245956 -0.3483,-0.703755 -0.3483,-1.373301 0,-0.136642 0.0138,-0.409921 0.0411,-0.819847 0.81985,-0.05466 1.59167,-0.273176 2.31588,-0.655774 0.7242,-0.396261 1.30501,-0.915568 1.74227,-1.557786 0.43725,-0.642217 0.65577,-1.345787 0.65577,-2.110982 0,-1.311763 -0.75132,-1.967838 -2.25439,-1.967838 z m 0.16382,1.086497 c 0.34161,0 0.51237,0.280027 0.51237,0.840259 0,0.560232 -0.14351,1.093035 -0.43046,1.59861 -0.27329,0.505576 -0.64207,0.922371 -1.10665,1.250312 -0.45092,0.32794 -0.92922,0.505714 -1.4348,0.533042 0.20496,-1.093136 0.53975,-2.070243 1.00433,-2.931087 0.47825,-0.860845 0.9633,-1.291136 1.45521,-1.291136 z" />
</svg>
